# xmcd
#
# Track frame offsets:
#	183
#	24553
#	41760
#
# Disc length: 791 seconds
#
# Revision: 0
# Processed by: cddbd v1.5.2PL0 Copyright (c) Steve Scherf et al.
# Submitted via: audiograbber 1.83.01
#
DISCID=1e031503
DTITLE=David Hasselhoff - Do the Limbo dance
DYEAR=1991
DGENRE=pop
TTITLE0=Do the Limbo Dance (Long)
TTITLE1=Do the Limbo Dance (Radio)
TTITLE2=Do the Limbo Dance (Instrumental)
EXTD=
EXTT0=
EXTT1=
EXTT2=
PLAYORDER=
